<svg width="30" height="30" viewBox="0 0 30 30" fill="none" xmlns="http://www.w3.org/2000/svg">
<g clip-path="url(#clip0_1_597)">
<path d="M21.1964 0.811861L21.1964 21.4384L0.569918 21.4384V25.4377L25.1958 25.4377L25.1958 0.811861H21.1964Z" fill="#040505"/>
<path d="M20.7657 0.38105H25.6266L25.6266 25.8694L0.139147 25.8694V21.0085L20.7657 21.0085L20.7657 0.38105ZM24.765 1.24261H21.6272L21.6272 21.8692L1.0007 21.8692V25.0069L24.765 25.0069L24.765 1.24261Z" fill="#1A1818"/>
<path d="M24.2783 3.78429H29.1392L29.1392 29.2717L3.65177 29.2717V24.4074L24.2783 24.4074L24.2783 3.78429ZM28.2776 4.64585H25.1398L25.1398 25.2689L4.51333 25.2689V28.4068L28.2776 28.4068L28.2776 4.64585Z" fill="#1A1818"/>
</g>
<defs>
<clipPath id="clip0_1_597">
<rect width="29" height="28.8906" fill="white" transform="translate(0.13916 0.381104)"/>
</clipPath>
</defs>
</svg>
