<svg width="32" height="32" viewBox="0 0 32 32" fill="none" xmlns="http://www.w3.org/2000/svg">
<g clip-path="url(#clip0_1_776)">
<path d="M15.8262 3.12002C19.977 3.12002 20.4688 3.13601 22.1084 3.21099C23.0943 3.22256 24.0709 3.40347 24.9955 3.74583C25.6659 4.00448 26.2747 4.40059 26.7828 4.90868C27.2909 5.41676 27.687 6.02558 27.9456 6.69596C28.288 7.62059 28.4689 8.59719 28.4805 9.58311C28.5554 11.2226 28.5714 11.7145 28.5714 15.8652C28.5714 20.016 28.5554 20.5079 28.4805 22.1474C28.4689 23.1333 28.288 24.1099 27.9456 25.0345C27.6869 25.7053 27.2905 26.3144 26.7821 26.8227C26.2736 27.331 25.6643 27.7271 24.9935 27.9857C24.0689 28.328 23.0923 28.5089 22.1064 28.5205C20.4668 28.5955 19.976 28.6115 15.8242 28.6115C11.6724 28.6115 11.1816 28.5955 9.54207 28.5205C8.55616 28.509 7.57956 28.328 6.65493 27.9857C5.98463 27.7264 5.37602 27.3298 4.86827 26.8212C4.36052 26.3126 3.96488 25.7033 3.7068 25.0325C3.36444 24.1079 3.18352 23.1313 3.17196 22.1454C3.09698 20.5059 3.08099 20.014 3.08099 15.8632C3.08099 11.7125 3.09698 11.2206 3.17196 9.58111C3.1835 8.59519 3.36442 7.61859 3.7068 6.69396C3.96545 6.02358 4.36156 5.41477 4.86964 4.90668C5.37773 4.39859 5.98655 4.00248 6.65693 3.74383C7.58156 3.40145 8.55816 3.22054 9.54407 3.20899C11.1836 3.13401 11.6754 3.11802 15.8262 3.11802M15.8262 0.318848C11.6035 0.318848 11.0746 0.336842 9.41611 0.41282C8.12645 0.440099 6.85074 0.685844 5.64323 1.1396C4.61165 1.53906 3.6748 2.14941 2.89259 2.93162C2.11038 3.71383 1.50002 4.65069 1.10057 5.68226C0.648065 6.89033 0.403672 8.16637 0.377786 9.45614C0.301808 11.1147 0.283813 11.6435 0.283813 15.8662C0.283813 20.089 0.301808 20.6178 0.377786 22.2763C0.403785 23.5658 0.648176 24.8415 1.10057 26.0492C1.5 27.0819 2.11075 28.0198 2.8937 28.8028C3.67665 29.5857 4.61452 30.1965 5.64723 30.5959C6.85529 31.0484 8.13134 31.2928 9.42111 31.3187C11.0796 31.3947 11.6085 31.4126 15.8312 31.4126C20.054 31.4126 20.5828 31.3947 22.2413 31.3187C23.5311 31.2928 24.8071 31.0484 26.0152 30.5959C27.0479 30.1965 27.9858 29.5857 28.7687 28.8028C29.5517 28.0198 30.1624 27.0819 30.5619 26.0492C31.0144 24.8412 31.2588 23.5651 31.2846 22.2753C31.3606 20.6168 31.3786 20.088 31.3786 15.8652C31.3786 11.6425 31.3606 11.1137 31.2846 9.45514C31.2588 8.16537 31.0144 6.88933 30.5619 5.68126C30.1613 4.649 29.5495 3.7118 28.7657 2.92971C27.9819 2.14762 27.0433 1.5379 26.0102 1.1396C24.8021 0.687098 23.5261 0.442705 22.2363 0.416819C20.5778 0.340841 20.049 0.322847 15.8262 0.322847V0.318848Z" fill="white"/>
<path d="M15.8271 7.88281C14.2481 7.88281 12.7046 8.35104 11.3917 9.22829C10.0788 10.1055 9.05549 11.3524 8.45122 12.8112C7.84696 14.2701 7.68886 15.8753 7.99691 17.424C8.30496 18.9726 9.06533 20.3952 10.1819 21.5117C11.2984 22.6283 12.7209 23.3886 14.2696 23.6967C15.8183 24.0047 17.4235 23.8466 18.8823 23.2424C20.3412 22.6381 21.5881 21.6148 22.4653 20.3019C23.3426 18.989 23.8108 17.4455 23.8108 15.8665C23.8108 13.7491 22.9697 11.7184 21.4724 10.2212C19.9752 8.72394 17.9445 7.88281 15.8271 7.88281ZM15.8271 21.0489C14.8022 21.0489 13.8002 20.745 12.9479 20.1755C12.0957 19.6061 11.4314 18.7967 11.0392 17.8497C10.6469 16.9027 10.5443 15.8607 10.7443 14.8554C10.9442 13.8501 11.4378 12.9267 12.1626 12.2019C12.8874 11.4771 13.8108 10.9835 14.8161 10.7836C15.8214 10.5836 16.8634 10.6862 17.8104 11.0785C18.7574 11.4707 19.5667 12.135 20.1362 12.9872C20.7057 13.8395 21.0096 14.8415 21.0096 15.8665C21.0083 17.2401 20.4617 18.557 19.4899 19.5278C18.5182 20.4986 17.2008 21.0439 15.8271 21.0439V21.0489Z" fill="white"/>
<path d="M24.1257 9.43207C25.156 9.43207 25.9912 8.59688 25.9912 7.56662C25.9912 6.53636 25.156 5.70117 24.1257 5.70117C23.0954 5.70117 22.2603 6.53636 22.2603 7.56662C22.2603 8.59688 23.0954 9.43207 24.1257 9.43207Z" fill="white"/>
</g>
<defs>
<clipPath id="clip0_1_776">
<rect width="31.0938" height="31.0938" fill="white" transform="translate(0.279785 0.318848)"/>
</clipPath>
</defs>
</svg>
