<svg width="88" height="80" viewBox="0 0 88 80" fill="none" xmlns="http://www.w3.org/2000/svg">
<path fill-rule="evenodd" clip-rule="evenodd" d="M48.2335 38.0182L25.3293 44.1759V6.12895L48.2837 0L48.2335 38.0182Z" fill="#CCCCCC"/>
<path fill-rule="evenodd" clip-rule="evenodd" d="M45.1697 41.7517L66.4378 54.0671V78.8203H45.1697V41.7517Z" fill="#CCCCCC"/>
<path d="M52.2877 77.6405H57.9348V66.6127L52.2877 63.3468V77.6405ZM46.9276 57.6638V44.1183L42.8806 41.7804V57.6638H46.9276ZM60.2812 51.8514V77.6405H65.2681V54.736L60.2812 51.8514ZM20.1631 46.8519L16.3099 47.8877V77.6405H20.1631V46.8519ZM22.5023 43.7946L36.8174 39.946C37.4416 39.7806 38.0802 40.1474 38.2525 40.7733C38.4175 41.3991 38.0515 42.0393 37.4273 42.212L22.5023 46.2188V77.6333H49.9485V61.3182C49.9485 61.1168 49.9987 60.9153 50.1063 60.7283C50.4292 60.1672 51.1468 59.9802 51.7065 60.3039L57.9419 63.9151V50.499L49.2668 45.4779V58.8364C49.2668 59.4838 48.743 60.009 48.0972 60.009H41.711C41.0652 60.009 40.5414 59.4838 40.5414 58.8364V39.7518C40.5414 39.1043 41.0652 38.5792 41.711 38.5792C41.9622 38.5792 42.199 38.6584 42.3855 38.795L46.9204 41.4207V15.8978L22.5023 22.4584V43.7946V43.7946ZM49.2668 16.3942V42.7731L57.9419 47.7942V21.4153L49.2668 16.3942ZM1.16961 79.9928C0.523813 79.9928 0 79.4676 0 78.8202C0 78.1728 0.523813 77.6477 1.16961 77.6477H13.9635V48.5208L12.0835 49.0243C11.4592 49.1898 10.8206 48.8229 10.6484 48.1971C10.4834 47.5712 10.8493 46.931 11.4736 46.7583L13.9563 46.0893V30.9756C13.9563 30.3282 14.4801 29.803 15.1259 29.803C15.7717 29.803 16.2955 30.3282 16.2955 30.9756V45.4635L20.1487 44.4276V21.5592C20.1487 20.9909 20.5506 20.5233 21.0815 20.4082L47.7815 13.2362C48.1259 13.1427 48.4703 13.2146 48.743 13.4016L57.9276 18.7177V15.3007C57.9276 14.6533 58.4514 14.1282 59.0972 14.1282C59.743 14.1282 60.2668 14.6533 60.2668 15.3007V20.0773L67.2485 24.1201C67.8082 24.4438 68.0019 25.156 67.6791 25.7171C67.3562 26.2782 66.6458 26.4724 66.0861 26.1487L60.2668 22.7821V49.161L67.0046 53.0599C67.3777 53.2757 67.5929 53.6714 67.5929 54.0742H67.6001V77.6549H86.8304C87.4762 77.6549 88 78.18 88 78.8274C88 79.4748 87.4762 80 86.8304 80H66.4233H59.0972H51.1037H21.3327H15.1402H1.16961V79.9928Z" fill="#141414"/>
</svg>
