<svg width="30" height="30" viewBox="0 0 30 30" fill="none" xmlns="http://www.w3.org/2000/svg">
<g clip-path="url(#clip0_1_784)">
<path d="M14.5689 0.342285C11.1841 0.343125 7.90589 1.52591 5.30033 3.6864C2.69476 5.84689 0.925431 8.84943 0.297892 12.1755C-0.329648 15.5016 0.223997 18.9424 1.86322 21.9038C3.50244 24.8651 6.12432 27.1611 9.27609 28.3952C9.08369 27.0103 9.10055 25.6043 9.32609 24.2244C9.59008 23.0904 11.026 17.0047 11.026 17.0047C10.7306 16.3248 10.5827 15.59 10.592 14.8487C10.592 12.8288 11.763 11.3219 13.2199 11.3219C13.4805 11.3181 13.7388 11.3701 13.9775 11.4745C14.2162 11.5789 14.4299 11.7332 14.604 11.927C14.7781 12.1209 14.9087 12.3497 14.987 12.5982C15.0653 12.8468 15.0895 13.1092 15.0579 13.3678C15.0579 14.6137 14.2649 16.4767 13.8579 18.2036C13.7767 18.5236 13.7718 18.8582 13.8435 19.1804C13.9152 19.5027 14.0616 19.8036 14.2708 20.059C14.4801 20.3143 14.7464 20.517 15.0482 20.6506C15.3501 20.7843 15.6791 20.8452 16.0088 20.8285C18.5897 20.8285 20.5747 18.1066 20.5747 14.1778C20.6004 13.3813 20.4598 12.5883 20.1618 11.8493C19.8639 11.1102 19.4153 10.4414 18.8444 9.88539C18.2736 9.32942 17.5931 8.89854 16.8465 8.62023C16.0998 8.34192 15.3034 8.22229 14.5079 8.26899C13.6587 8.23234 12.8109 8.36829 12.0157 8.6686C11.2205 8.96891 10.4945 9.42735 9.88154 10.0162C9.26857 10.6051 8.78137 11.3121 8.44941 12.0946C8.11744 12.8771 7.9476 13.7188 7.95015 14.5687C7.95218 15.7597 8.33052 16.9195 9.0311 17.8826C9.08246 17.9375 9.11867 18.0048 9.1362 18.0779C9.15373 18.151 9.15197 18.2274 9.1311 18.2996C9.0211 18.7586 8.77611 19.7445 8.73112 19.9465C8.66812 20.2125 8.52012 20.2685 8.24513 20.1405C6.4312 19.2966 5.29725 16.6407 5.29725 14.5137C5.29725 9.93192 8.62612 5.72508 14.8969 5.72508C19.9347 5.72508 23.8505 9.31495 23.8505 14.1128C23.8505 19.1186 20.6947 23.1464 16.3138 23.1464C15.6637 23.1692 15.0183 23.0284 14.4367 22.737C13.8551 22.4456 13.3559 22.0129 12.985 21.4785C12.985 21.4785 12.257 24.2514 12.085 24.9314C11.648 26.2749 11.0375 27.5557 10.2691 28.7412C12.2668 29.3608 14.3748 29.5417 16.4488 29.2714C18.5229 29.0012 20.5141 28.2862 22.2864 27.1753C24.0586 26.0645 25.5701 24.584 26.7173 22.8352C27.8646 21.0863 28.6207 19.1103 28.9338 17.0422C29.2469 14.9742 29.1097 12.8629 28.5316 10.8528C27.9534 8.8427 26.948 6.98115 25.584 5.39546C24.2201 3.80978 22.5297 2.53736 20.6286 1.66523C18.7275 0.793107 16.6605 0.341837 14.5689 0.342285Z" fill="white"/>
</g>
<defs>
<clipPath id="clip0_1_784">
<rect width="29.0469" height="29.0469" fill="white" transform="translate(0.0454102 0.342285)"/>
</clipPath>
</defs>
</svg>
