<svg width="32" height="32" viewBox="0 0 32 32" fill="none" xmlns="http://www.w3.org/2000/svg">
<g clip-path="url(#clip0_1_790)">
<path d="M16.1396 0.209473C13.0432 0.209473 10.0164 1.12767 7.44178 2.84794C4.8672 4.56822 2.86056 7.01331 1.67562 9.87403C0.49067 12.7347 0.180634 15.8826 0.784715 18.9195C1.3888 21.9564 2.87986 24.746 5.06936 26.9355C7.25885 29.125 10.0484 30.6161 13.0854 31.2202C16.1223 31.8242 19.2701 31.5142 22.1308 30.3293C24.9916 29.1443 27.4366 27.1377 29.1569 24.5631C30.8772 21.9885 31.7954 18.9616 31.7954 15.8652C31.7951 11.7131 30.1456 7.73119 27.2096 4.79523C24.2737 1.85926 20.2917 0.209738 16.1396 0.209473ZM24.002 12.8976C24.009 13.0595 24.013 13.2224 24.013 13.3854C24.0138 15.312 23.496 17.2033 22.5141 18.8609C21.5321 20.5185 20.1221 21.8812 18.4319 22.8061C16.7418 23.731 14.834 24.184 12.9085 24.1175C10.983 24.051 9.11092 23.4675 7.48865 22.4282C7.78724 22.4631 8.08761 22.4804 8.38823 22.4802C10.0878 22.483 11.739 21.9141 13.0761 20.8649C12.2883 20.8502 11.5248 20.5895 10.8925 20.1194C10.2602 19.6493 9.79072 18.9933 9.5497 18.2431C10.1153 18.352 10.6983 18.3298 11.2539 18.1782C10.4001 18.0055 9.63234 17.5429 9.08057 16.8689C8.5288 16.1949 8.227 15.3509 8.22631 14.4799C8.22631 14.4629 8.22631 14.4479 8.22631 14.4319C8.7501 14.7236 9.33624 14.8854 9.93552 14.9037C9.13643 14.3697 8.57094 13.5512 8.35422 12.6148C8.1375 11.6785 8.28585 10.6948 8.76906 9.864C9.71728 11.0294 10.9 11.9823 12.2404 12.6609C13.5808 13.3396 15.0489 13.7287 16.5495 13.8032C16.3602 12.9937 16.4434 12.1444 16.786 11.3869C17.1287 10.6295 17.7117 10.0064 18.4447 9.61409C19.1776 9.22181 20.0195 9.08237 20.8398 9.21737C21.6601 9.35238 22.4129 9.75429 22.9815 10.3608C23.8274 10.1945 24.6388 9.88488 25.3804 9.4452C25.0987 10.3193 24.509 11.0614 23.7211 11.5332C24.4691 11.4447 25.1995 11.2446 25.8881 10.9395C25.3809 11.6992 24.7422 12.3623 24.002 12.8976Z" fill="white"/>
</g>
<defs>
<clipPath id="clip0_1_790">
<rect width="31.3125" height="31.3125" fill="white" transform="translate(0.48291 0.209473)"/>
</clipPath>
</defs>
</svg>
