<svg width="43" height="30" viewBox="0 0 43 30" fill="none" xmlns="http://www.w3.org/2000/svg">
<g clip-path="url(#clip0_1_787)">
<path d="M41.1631 4.88032C40.9264 4.00132 40.463 3.19989 39.8193 2.55621C39.1756 1.91252 38.3742 1.44914 37.4952 1.21244C34.2602 0.3457 21.2871 0.345703 21.2871 0.345703C21.2871 0.345703 8.31407 0.3457 5.07905 1.21244C4.20005 1.44914 3.39862 1.91252 2.75494 2.55621C2.11125 3.19989 1.64787 4.00132 1.41117 4.88032C0.54443 8.11534 0.544434 14.8653 0.544434 14.8653C0.544434 14.8653 0.54443 21.6152 1.41117 24.8503C1.64787 25.7293 2.11125 26.5307 2.75494 27.1744C3.39862 27.8181 4.20005 28.2814 5.07905 28.5181C8.31407 29.3849 21.2871 29.3849 21.2871 29.3849C21.2871 29.3849 34.2602 29.3849 37.4952 28.5181C38.3742 28.2814 39.1756 27.8181 39.8193 27.1744C40.463 26.5307 40.9264 25.7293 41.1631 24.8503C42.0298 21.6152 42.0298 14.8653 42.0298 14.8653C42.0298 14.8653 42.0298 8.11534 41.1631 4.88032ZM17.1394 21.0884V8.64318L27.9171 14.8663L17.1394 21.0884Z" fill="white"/>
</g>
<defs>
<clipPath id="clip0_1_787">
<rect width="41.4844" height="29.0469" fill="white" transform="translate(0.54541 0.342285)"/>
</clipPath>
</defs>
</svg>
